<svg xmlns="http://www.w3.org/2000/svg" xmlns:xlink="http://www.w3.org/1999/xlink" width="1257.392" height="362.727" viewBox="0 0 1257.392 362.727">
  <defs>
    <clipPath id="clip-path">
      <rect id="長方形_10" data-name="長方形 10" width="1257.392" height="362.727" fill="#fff"/>
    </clipPath>
  </defs>
  <g id="グループ_6" data-name="グループ 6" transform="translate(0 0)">
    <path id="パス_1" data-name="パス 1" d="M93.42,208.709,126.093,124.5l32.673,84.214-32.673,34.057ZM0,328.357H46.479L75.93,253.344l49.7,52.007,51.54-52.007,28.99,75.013H253.1L125.632,4.853Z" transform="translate(0 21.788)" fill="#fff"/>
    <rect id="長方形_9" data-name="長方形 9" width="46.474" height="322.132" transform="translate(439.694 0)" fill="#fff"/>
    <g id="グループ_5" data-name="グループ 5" transform="translate(0 0)">
      <g id="グループ_4" data-name="グループ 4" clip-path="url(#clip-path)">
        <path id="パス_2" data-name="パス 2" d="M204.991,39.667q-11.042-15.406-30.834-21.392a74.91,74.91,0,0,0-20.706-2.767A113.079,113.079,0,0,0,121.7,20.344,147.673,147.673,0,0,0,90.41,33.459V79.015l10.123,5.522q4.595-7.823,20.937-15.189,16.337-7.345,30.6-7.361a30.763,30.763,0,0,1,9.667,1.378,10,10,0,0,1,5.747,3.683q2.075,2.767,2.075,10.589V252.5h46.474V77.638q0-22.545-11.045-37.971" transform="translate(405.891 69.624)" fill="#fff"/>
        <path id="パス_3" data-name="パス 3" d="M45.368,188.249V154.066q0-8.456,3.167-12.1t10.276-3.65q7.872,0,12.483,10.754a55.6,55.6,0,0,0,5.572,9.793q8.061,10.375,23.813,16.611a93.54,93.54,0,0,0,34.759,6.242q20.355,0,32.646-8.256t12.291-21.7q0-13.636-9.892-19.4T136.592,126.6H126.03q-39.178,0-59.731-13.636T45.752,73.4q0-25.345,20.069-39.37t56.366-14.02a115.946,115.946,0,0,1,30.148,4.128q15.365,4.134,16.134,4.134,2.116,0,8.069-3.749a21.951,21.951,0,0,1,11.715-3.744q6.521,0,9.694,4.8t3.173,14.4V62.458q0,10.177-3.074,14.69t-9.793,4.512q-5.764,0-14.212-9.793a133.129,133.129,0,0,0-9.793-10.177,63.557,63.557,0,0,0-21.705-13.537q-11.52-4.134-27.079-4.134-18.049,0-29.094,7.971T75.329,72.252q0,12.1,11.33,17.286t48.779,5.951q39.944.963,58.38,13.927t18.439,40.04q0,25.929-20.36,41.484t-54.922,15.552a165.572,165.572,0,0,1-24.39-2.015q-13.446-2.017-33.8-6.818a90.786,90.786,0,0,1-11.522,6.626,20.206,20.206,0,0,1-8.064,2.207q-6.727,0-10.276-4.7t-3.552-13.537" transform="translate(203.678 89.853)" fill="#fff"/>
        <path id="パス_4" data-name="パス 4" d="M216.6,76.243H120V14.789h96.6Zm0,220.089H120q0-17.284.2-40.907.181-23.616.192-54.346,0-25.164-.192-50.031T120,98.141h96.6q0,26.885-.192,45.228t-.192,57.326q0,42.439.192,59.626t.192,36.011" transform="translate(538.73 66.396)" fill="#fff"/>
        <path id="パス_5" data-name="パス 5" d="M145.006,313.237V5.745h50.311V272.51H312.275v40.726Z" transform="translate(650.998 25.793)" fill="#fff"/>
        <path id="パス_6" data-name="パス 6" d="M254.819,241.7c-13.641,0-21.079-8.267-23.561-17.358-6.2,12.812-15.705,17.358-27.283,17.358-19.427,0-42.159-8.267-42.159-67.789,0-39.678,12.4-58.693,36.79-66.96,3.3-1.241,7.438-2.481,10.743-3.722,11.16-3.716,15.711-11.16,15.711-38.025,0-28.523-2.481-35.132-11.16-35.132-10.748,0-13.229,6.609-13.229,30.582a165.785,165.785,0,0,0,2.069,23.978l-30.176,1.241c-1.658-6.2-4.551-13.23-4.551-28.111,0-35.133,17.363-50.014,49.6-50.014,26.042,0,42.988,12.818,42.988,34.309v164.1c0,7.444,3.722,11.989,8.679,11.989a26.41,26.41,0,0,0,9.513-2.064v19.839a56.9,56.9,0,0,1-23.978,5.786M224.232,119.346c-22.732,11.572-25.213,27.277-25.213,57.87,0,31.411,3.3,39.678,14.465,39.678,10.337,0,10.748-9.091,10.748-32.651Z" transform="translate(726.47 34.749)" fill="#fff"/>
        <path id="パス_7" data-name="パス 7" d="M229.975,301.536h-.845v39.87H186.713V2.075h43.262V147.562c19.938-33.085,50.053-48.357,83.983-48.357,62.777,0,105.194,53.868,105.194,124.281,0,76.347-49.63,125.127-108.164,125.127-36.477,0-65.319-18.664-81.013-47.078m72.532,6.785c41.566,0,71.681-35.632,71.681-84.406,0-48.357-30.115-83.989-71.681-83.989-41.143,0-73.377,34.781-73.377,84.411s32.657,83.983,73.377,83.983" transform="translate(838.239 9.317)" fill="#fff"/>
      </g>
    </g>
  </g>
</svg>
